<?xml version="1.0" encoding="UTF-8"?>
<svg id="Layer_2" data-name="Layer 2" xmlns="http://www.w3.org/2000/svg" viewBox="0 0 682.94 230.6">
  <defs>
    <style>
      .cls-1 {
        fill: #f26649;
      }

      .cls-1, .cls-2 {
        stroke-width: 0px;
      }

      .cls-2 {
        fill: #001822;
      }
    </style>
  </defs>
  <g id="Layer_1-2" data-name="Layer 1">
    <path class="cls-2" d="M16.69,193.95l-2.85-4.86,15.51-8.97c-2.01-3.86-5.95-5.95-9.98-5.95-5.37,0-10.9,3.61-12.58,10.4H0c1.93-10.56,10.65-16.43,19.45-16.43,7.71,0,15.43,4.53,18.45,14l-21.21,11.82ZM36.81,198.57c-3.86,6.62-10.65,9.73-17.27,9.73-8.97,0-17.61-5.79-19.54-16.35h6.79c1.68,6.79,7.04,10.48,12.66,10.48,4.45,0,9.22-2.35,11.74-7.13l5.62,3.27Z"/>
    <path class="cls-2" d="M53.07,207.12h-6.71v-62.89h6.71v62.89Z"/>
    <path class="cls-2" d="M78.65,193.95l-2.85-4.86,15.51-8.97c-2.01-3.86-5.95-5.95-9.98-5.95-5.37,0-10.9,3.61-12.58,10.4h-6.79c1.93-10.56,10.65-16.43,19.45-16.43,7.71,0,15.43,4.53,18.45,14l-21.21,11.82ZM98.77,198.57c-3.86,6.62-10.65,9.73-17.27,9.73-8.97,0-17.61-5.79-19.54-16.35h6.79c1.68,6.79,7.04,10.48,12.66,10.48,4.45,0,9.22-2.35,11.74-7.13l5.62,3.27Z"/>
    <path class="cls-2" d="M127.45,205.94l-6.12,2.35-17.52-37.82,6.12-2.43,17.52,37.9ZM144.3,171.06l-12.16,25.83-5.79-3.02,12.16-25.74,5.79,2.93Z"/>
    <path class="cls-2" d="M163.67,208.04c-10.23-1.84-16.69-10.48-16.69-19.79s6.46-17.94,16.69-19.79v6.37c-6.37,1.59-10.06,7.38-10.06,13.42s3.69,11.82,10.06,13.42v6.37ZM170.96,208.04v-6.37c6.37-1.59,10.06-7.38,10.06-13.42s-3.69-11.82-10.06-13.42v-6.37c10.23,1.84,16.69,10.48,16.69,19.79s-6.46,17.94-16.69,19.79Z"/>
    <path class="cls-2" d="M217.08,175.26h-20.37v-5.87h20.37v5.87ZM203.41,207.12h-6.71v-25.15h6.71v25.15Z"/>
    <path class="cls-2" d="M246.59,176.26c-1.93-1.17-4.11-1.84-6.37-1.84-7.21,0-13,6.29-13,14.09s5.79,14.09,13,14.09c2.27,0,4.45-.67,6.37-1.84l1.85,5.79c-2.6,1.26-5.45,1.93-8.47,1.93-10.82,0-19.54-8.97-19.54-19.96s8.72-19.96,19.54-19.96c3.02,0,5.95.75,8.55,2.01l-1.93,5.7ZM261.02,210.72c0,11.91-9.47,19.87-20.29,19.87-7.29,0-13.92-3.77-17.69-10.23l5.7-3.35c2.52,4.86,7.04,7.63,11.99,7.63,7.13,0,13.58-5.37,13.58-13.92v-41.34h6.71v41.34Z"/>
    <path class="cls-2" d="M291.12,206.62c-2.1.59-5.03,1.17-7.29,1.17-9.73,0-14.59-6.29-14.59-12.58s4.86-12.58,14.59-12.58c2.26,0,5.2.59,7.29,1.17l-1.26,5.45c-2.01-.67-3.77-1.01-5.87-1.01-5.45,0-8.22,3.35-8.22,6.88s2.77,7.04,8.22,7.04c2.1,0,3.86-.33,5.87-1.01l1.26,5.45ZM304.28,207.12h-6.71v-24.32c0-6.54-5.11-8.97-10.73-8.97-4.28,0-8.89,1.34-11.65,3.27l-2.26-5.62c3.94-2.18,8.97-3.52,14.17-3.52,8.72,0,17.19,3.77,17.19,14.09v25.07Z"/>
    <path class="cls-2" d="M320.88,207.12h-6.71v-37.73h6.71v37.73ZM348.55,207.12h-6.71v-24.82c0-5.53-4.02-8.13-8.38-8.13-1.68,0-3.27.34-4.86,1.01l-1.26-5.62c2.01-.84,4.36-1.26,6.46-1.26,7.29,0,14.76,4.28,14.76,13.42v25.41Z"/>
    <path class="cls-2" d="M362.22,153.37c-2.68,0-4.78-2.1-4.78-4.7s2.1-4.78,4.78-4.78,4.7,2.1,4.7,4.78-2.1,4.7-4.7,4.7ZM365.57,207.12h-6.71v-37.73h6.71v37.73Z"/>
    <path class="cls-2" d="M390.22,208.88c-6.88,0-13.83-3.35-16.18-10.48l5.45-1.93c1.85,4.7,6.46,6.79,10.73,6.79,4.61,0,8.89-2.51,8.89-6.71,0-2.26-1.68-4.28-5.12-4.86l-.84-.17,1.51-5.62,1.26.25c5.54,1.09,9.64,4.36,9.64,10.56,0,7.88-7.46,12.16-15.34,12.16ZM400.12,179.87c-1.85-4.53-6.29-6.62-10.23-6.62-4.19,0-7.96,2.26-7.96,6.2,0,2.35,1.59,4.28,4.7,4.86l.67.17-1.51,5.62-.76-.17c-5.37-1.09-9.47-4.36-9.47-10.48,0-7.71,6.96-11.74,14.25-11.74,6.46,0,13.25,3.1,15.68,9.73l-5.37,2.43Z"/>
    <path class="cls-2" d="M433.99,206.62c-2.1.59-5.03,1.17-7.29,1.17-9.73,0-14.59-6.29-14.59-12.58s4.86-12.58,14.59-12.58c2.26,0,5.2.59,7.29,1.17l-1.26,5.45c-2.01-.67-3.77-1.01-5.87-1.01-5.45,0-8.22,3.35-8.22,6.88s2.77,7.04,8.22,7.04c2.1,0,3.86-.33,5.87-1.01l1.26,5.45ZM447.16,207.12h-6.71v-24.32c0-6.54-5.12-8.97-10.73-8.97-4.28,0-8.89,1.34-11.65,3.27l-2.27-5.62c3.94-2.18,8.97-3.52,14.17-3.52,8.72,0,17.19,3.77,17.19,14.09v25.07Z"/>
    <path class="cls-2" d="M471.56,208.88c-6.88,0-13.83-3.35-16.18-10.48l5.45-1.93c1.85,4.7,6.46,6.79,10.73,6.79,4.61,0,8.89-2.51,8.89-6.71,0-2.26-1.68-4.28-5.12-4.86l-.84-.17,1.51-5.62,1.26.25c5.54,1.09,9.64,4.36,9.64,10.56,0,7.88-7.46,12.16-15.34,12.16ZM481.45,179.87c-1.85-4.53-6.29-6.62-10.23-6.62-4.19,0-7.96,2.26-7.96,6.2,0,2.35,1.59,4.28,4.7,4.86l.67.17-1.51,5.62-.76-.17c-5.37-1.09-9.47-4.36-9.47-10.48,0-7.71,6.96-11.74,14.25-11.74,6.46,0,13.25,3.1,15.68,9.73l-5.37,2.43Z"/>
    <path class="cls-2" d="M498.81,153.37c-2.68,0-4.78-2.1-4.78-4.7s2.1-4.78,4.78-4.78,4.7,2.1,4.7,4.78-2.1,4.7-4.7,4.7ZM502.08,229.67h-6.71v-60.29h6.71v60.29Z"/>
    <path class="cls-2" d="M527.31,208.04c-10.23-1.84-16.69-10.48-16.69-19.79s6.46-17.94,16.69-19.79v6.37c-6.37,1.59-10.06,7.38-10.06,13.42s3.69,11.82,10.06,13.42v6.37ZM534.61,208.04v-6.37c6.37-1.59,10.06-7.38,10.06-13.42s-3.69-11.82-10.06-13.42v-6.37c10.23,1.84,16.69,10.48,16.69,19.79s-6.46,17.94-16.69,19.79Z"/>
    <path class="cls-2" d="M566.22,207.12h-6.71v-37.73h6.71v37.73ZM593.89,207.12h-6.71v-24.82c0-5.53-4.03-8.13-8.38-8.13-1.68,0-3.27.34-4.86,1.01l-1.26-5.62c2.01-.84,4.36-1.26,6.46-1.26,7.29,0,14.76,4.28,14.76,13.42v25.41Z"/>
    <path class="cls-2" d="M619.46,193.95l-2.85-4.86,15.51-8.97c-2.01-3.86-5.95-5.95-9.98-5.95-5.37,0-10.9,3.61-12.58,10.4h-6.79c1.93-10.56,10.65-16.43,19.45-16.43,7.71,0,15.43,4.53,18.45,14l-21.21,11.82ZM639.59,198.57c-3.86,6.62-10.65,9.73-17.27,9.73-8.97,0-17.61-5.79-19.54-16.35h6.79c1.68,6.79,7.04,10.48,12.66,10.48,4.44,0,9.22-2.35,11.74-7.13l5.62,3.27Z"/>
    <path class="cls-2" d="M655.27,207.12h-6.71v-37.73h6.71v37.73ZM682.94,207.12h-6.71v-24.82c0-5.53-4.03-8.13-8.38-8.13-1.68,0-3.27.34-4.86,1.01l-1.26-5.62c2.01-.84,4.36-1.26,6.46-1.26,7.29,0,14.76,4.28,14.76,13.42v25.41Z"/>
    <rect class="cls-1" x="1.64" y="7" width="80.05" height="19.98"/>
    <rect class="cls-1" x="1.64" y="47.03" width="66.04" height="19.98"/>
    <rect class="cls-1" x="1.64" y="87.09" width="80.05" height="19.98"/>
    <path class="cls-1" d="M151.74,0c-31.45,0-57.03,25.59-57.03,57.03s25.58,57.04,57.03,57.04,57.03-25.59,57.03-57.04S183.19,0,151.74,0ZM151.74,94.57c-20.7,0-37.54-16.84-37.54-37.54s16.84-37.54,37.54-37.54,37.54,16.84,37.54,37.54-16.84,37.54-37.54,37.54Z"/>
  </g>
</svg>